<svg id="Layer_1" data-name="Layer 1" xmlns="http://www.w3.org/2000/svg" viewBox="0 0 183.78 40"><defs><style>.cls-1{fill:#86bc24;}</style></defs><path d="M6.9,5.9h9.2Q22,5.9,25,7.56t3,5.82a8.1,8.1,0,0,1-.54,3A5.61,5.61,0,0,1,26,18.64a5.26,5.26,0,0,1-2.47,1.13V20a8.22,8.22,0,0,1,2.67,1,5.29,5.29,0,0,1,1.91,2.15,8.15,8.15,0,0,1,.72,3.72,7.94,7.94,0,0,1-1.32,4.61,8.21,8.21,0,0,1-3.75,2.94,14.91,14.91,0,0,1-5.79,1H6.9Zm6.27,11.7h3.64a6.18,6.18,0,0,0,3.78-.85,3.1,3.1,0,0,0,1.05-2.54,2.63,2.63,0,0,0-1.24-2.44A8,8,0,0,0,16.46,11H13.17Zm0,5v7.7h4.08c1.89,0,3.2-.36,3.94-1.09a3.9,3.9,0,0,0,1.12-2.93,3.75,3.75,0,0,0-.49-1.92A3.16,3.16,0,0,0,20.19,23a8.57,8.57,0,0,0-3.14-.46Z"/><path d="M43.55,12.43a11.39,11.39,0,0,1,5.4,1.2,8.35,8.35,0,0,1,3.5,3.49,11.62,11.62,0,0,1,1.23,5.58v3H39.1a6,6,0,0,0,1.57,4.1,5.48,5.48,0,0,0,4.08,1.48,16.85,16.85,0,0,0,4-.44,20.77,20.77,0,0,0,3.7-1.34v4.77a14.59,14.59,0,0,1-3.51,1.21,21.65,21.65,0,0,1-4.44.39,13.82,13.82,0,0,1-6-1.25,9.2,9.2,0,0,1-4.1-3.83,12.64,12.64,0,0,1-1.49-6.47,14.48,14.48,0,0,1,1.34-6.59,9.19,9.19,0,0,1,3.75-4A11.47,11.47,0,0,1,43.55,12.43Zm0,4.38a4.1,4.1,0,0,0-3,1.16,5.43,5.43,0,0,0-1.36,3.62H47.9a6.12,6.12,0,0,0-.5-2.45A3.92,3.92,0,0,0,46,17.44,4.24,4.24,0,0,0,43.59,16.81Z"/><path d="M64.86,35.45H58.69V4h6.17Z"/><path d="M91.87,24.11a15.44,15.44,0,0,1-.76,5,10.16,10.16,0,0,1-2.2,3.69,9.43,9.43,0,0,1-3.48,2.27,12.9,12.9,0,0,1-4.58.77,12.14,12.14,0,0,1-4.38-.77A9.56,9.56,0,0,1,73,32.82a10.44,10.44,0,0,1-2.27-3.69,14.65,14.65,0,0,1-.79-5,13.81,13.81,0,0,1,1.33-6.36,9.17,9.17,0,0,1,3.8-4A12,12,0,0,1,81,12.43a11.49,11.49,0,0,1,5.63,1.35,9.6,9.6,0,0,1,3.86,4A13.2,13.2,0,0,1,91.87,24.11Zm-15.63,0a12.27,12.27,0,0,0,.49,3.75,4.36,4.36,0,0,0,1.51,2.28,4.42,4.42,0,0,0,2.69.77,4.33,4.33,0,0,0,2.66-.77,4.41,4.41,0,0,0,1.5-2.28,13,13,0,0,0,.47-3.75,12.62,12.62,0,0,0-.47-3.72,4.25,4.25,0,0,0-1.51-2.24,4.46,4.46,0,0,0-2.69-.75,3.94,3.94,0,0,0-3.55,1.68A9.31,9.31,0,0,0,76.24,24.11Z"/><path d="M103.13,12.85v22.6H97V12.85ZM100.06,4a4.23,4.23,0,0,1,2.36.64,2.59,2.59,0,0,1,1,2.37,2.65,2.65,0,0,1-1,2.38,4.65,4.65,0,0,1-4.74,0A2.67,2.67,0,0,1,96.7,7a2.61,2.61,0,0,1,1-2.37A4.23,4.23,0,0,1,100.06,4Z"/><path d="M119.12,31a9.21,9.21,0,0,0,2-.21,18.51,18.51,0,0,0,1.91-.5v4.59a12.38,12.38,0,0,1-2.45.74,16.87,16.87,0,0,1-3.21.29,9.47,9.47,0,0,1-3.63-.66,5.12,5.12,0,0,1-2.53-2.28,9.36,9.36,0,0,1-.91-4.54V17.48h-3V14.87l3.4-2.06L112.49,8h3.94v4.81h6.33v4.63h-6.33v10.9a2.43,2.43,0,0,0,.74,1.93A2.9,2.9,0,0,0,119.12,31Z"/><path d="M137.09,31a9.21,9.21,0,0,0,2-.21,18.51,18.51,0,0,0,1.91-.5v4.59a12.38,12.38,0,0,1-2.45.74,16.87,16.87,0,0,1-3.21.29,9.47,9.47,0,0,1-3.63-.66,5.06,5.06,0,0,1-2.52-2.28,9.24,9.24,0,0,1-.92-4.54V17.48h-3V14.87l3.4-2.06L130.46,8h3.94v4.81h6.33v4.63H134.4v10.9a2.43,2.43,0,0,0,.74,1.93A2.9,2.9,0,0,0,137.09,31Z"/><path d="M154.86,12.43a11.39,11.39,0,0,1,5.4,1.2,8.41,8.41,0,0,1,3.5,3.49A11.62,11.62,0,0,1,165,22.7v3H150.41a6,6,0,0,0,1.57,4.1,5.47,5.47,0,0,0,4.07,1.48,16.87,16.87,0,0,0,4-.44,20.68,20.68,0,0,0,3.69-1.34v4.77a14.37,14.37,0,0,1-3.5,1.21,21.65,21.65,0,0,1-4.44.39,13.82,13.82,0,0,1-6-1.25,9.27,9.27,0,0,1-4.11-3.83,12.75,12.75,0,0,1-1.48-6.47,14.48,14.48,0,0,1,1.34-6.59,9.19,9.19,0,0,1,3.75-4A11.47,11.47,0,0,1,154.86,12.43Zm0,4.38a4.1,4.1,0,0,0-3,1.16,5.43,5.43,0,0,0-1.36,3.62h8.65a6.29,6.29,0,0,0-.5-2.45,4,4,0,0,0-1.41-1.7A4.24,4.24,0,0,0,154.9,16.81Z"/><path class="cls-1" d="M169.14,32.56a3.11,3.11,0,0,1,1-2.67,4.11,4.11,0,0,1,2.51-.76,4.06,4.06,0,0,1,2.48.76,3.14,3.14,0,0,1,1,2.67,3.13,3.13,0,0,1-1,2.63,3.91,3.91,0,0,1-2.48.81,4,4,0,0,1-2.51-.81A3.1,3.1,0,0,1,169.14,32.56Z"/></svg>